<svg width="150" height="150" viewBox="0 0 150 150" fill="none" xmlns="http://www.w3.org/2000/svg">
<circle cx="75" cy="75" r="75" fill="#4AE424"/>
<path fill-rule="evenodd" clip-rule="evenodd" d="M45.8169 63.9627C43.8255 61.9714 40.597 61.9714 38.6056 63.9627V63.9627C36.6143 65.9541 36.6143 69.1827 38.6056 71.174L66.0426 98.611C68.0339 100.602 71.2625 100.602 73.2539 98.611L76.8594 95.0054C76.8595 95.0054 76.8595 95.0053 76.8594 95.0053V95.0053C76.8594 95.0053 76.8594 95.0052 76.8594 95.0052L123.132 48.733C124.836 47.0291 124.836 44.2666 123.132 42.5627V42.5627C121.428 40.8588 118.665 40.8588 116.961 42.5627L76.3459 83.1781C73.2217 86.3023 68.1564 86.3023 65.0322 83.1781L45.8169 63.9627Z" fill="white"/>
</svg>
