<svg width="150" height="150" viewBox="0 0 150 150" fill="none" xmlns="http://www.w3.org/2000/svg">
<circle cx="75" cy="75" r="75" fill="#E35C31"/>
<path fill-rule="evenodd" clip-rule="evenodd" d="M106.459 48.4769C108.021 46.9148 108.021 44.3821 106.459 42.82V42.82C104.897 41.2579 102.365 41.2579 100.803 42.82L81.0034 62.6191C77.4887 66.1339 71.7902 66.1339 68.2755 62.6191L48.4767 42.8204C46.9146 41.2583 44.3819 41.2583 42.8198 42.8204V42.8204C41.2578 44.3825 41.2578 46.9151 42.8199 48.4772L62.6186 68.276C66.1333 71.7907 66.1333 77.4892 62.6186 81.0039L42.8198 100.803C41.2577 102.365 41.2577 104.898 42.8198 106.46V106.46C44.3819 108.022 46.9145 108.022 48.4766 106.46L68.2755 86.6608C71.7902 83.1461 77.4887 83.1461 81.0034 86.6608L100.803 106.46C102.365 108.022 104.897 108.022 106.459 106.46V106.46C108.022 104.898 108.022 102.365 106.459 100.803L86.6602 81.0039C83.1455 77.4892 83.1455 71.7907 86.6602 68.276L106.459 48.4769Z" fill="white"/>
</svg>
